<svg viewBox="0 0 24 26" xmlns="http://www.w3.org/2000/svg"><path fill-rule="evenodd" d="M9.92933 24.4715C9.45924 24.0144 9.19286 23.3949 9.19286 22.75C9.19286 22.5266 9.00482 22.3437 8.775 22.3437C8.54518 22.3437 8.35714 22.5266 8.35714 22.75C8.35714 23.6133 8.7071 24.441 9.33388 25.0504C9.96067 25.6598 10.8121 26 11.7 26C12.5879 26 13.4393 25.6598 14.0661 25.0504C14.6929 24.441 15.0429 23.6133 15.0429 22.75C15.0429 22.5266 14.8548 22.3437 14.625 22.3437C14.3952 22.3437 14.2071 22.5266 14.2071 22.75C14.2071 23.3949 13.9408 24.0144 13.4707 24.4715C13.0006 24.9285 12.3633 25.1875 11.7 25.1875C11.0367 25.1875 10.3994 24.9285 9.92933 24.4715Z" /><path fill-rule="evenodd" d="M11.2821 1.63516C11.4926 1.625 11.4702 1.625 11.7 1.625C11.9298 1.625 11.8045 1.62003 12.1179 1.63516C16.5367 1.84844 20.0571 5.39804 20.0571 9.75V11.6086C20.0571 13.7312 20.7988 15.7879 22.1621 17.4434L23.0344 18.5047C23.2694 18.7891 23.3948 19.1445 23.3948 19.5101C23.3948 20.3988 22.6531 21.1199 21.739 21.1199H1.65576C0.741696 21.125 0 20.4039 0 19.5152C0 19.1496 0.125357 18.7941 0.360402 18.5098L1.23268 17.4484C2.60116 15.793 3.34286 13.7312 3.34286 11.6086V9.75C3.34286 5.39804 6.8633 1.84844 11.2821 1.63516ZM4.17857 9.75C4.17857 5.71289 7.54754 2.4375 11.7 2.4375C15.8525 2.4375 19.2214 5.71289 19.2214 9.75V11.6086C19.2214 13.9191 20.031 16.1535 21.5144 17.9562L22.3867 19.0176C22.5016 19.1598 22.5643 19.3324 22.5643 19.5152C22.5643 19.957 22.1987 20.3125 21.7442 20.3125H1.65576C1.20134 20.3125 0.835714 19.957 0.835714 19.5152C0.835714 19.3324 0.898393 19.1598 1.0133 19.0176L1.8908 17.9512C3.36897 16.1535 4.17857 13.9141 4.17857 11.6086V9.75Z" /></svg>
