<svg viewBox="0 0 23 26" xmlns="http://www.w3.org/2000/svg"><path d="M17.743 2.26484C18.0426 1.56914 17.8192 0.75664 17.2047 0.309765C16.5903 -0.13711 15.7524 -0.0964846 15.1785 0.401172L2.17855 11.7762C1.67073 12.223 1.48792 12.9391 1.72659 13.5687C1.96526 14.1984 2.57464 14.625 3.25003 14.625H8.91214L5.00706 23.7352C4.70745 24.4309 4.93089 25.2434 5.54534 25.6902C6.1598 26.1371 6.99769 26.0965 7.57151 25.5988L20.5715 14.2238C21.0793 13.777 21.2621 13.0609 21.0235 12.4312C20.7848 11.8016 20.1805 11.3801 19.5 11.3801H13.8379L17.743 2.26484Z" /></svg>
