<svg viewBox="0 0 24 26" xmlns="http://www.w3.org/2000/svg"><path d="M12.2895 0.116796C12.132 -0.0406258 11.873 -0.0406258 11.7156 0.116796L4.80938 7.02305C4.65195 7.18047 4.65195 7.43945 4.80938 7.59687C4.9668 7.7543 5.22578 7.7543 5.3832 7.59687L11.5938 1.38633V17.4688C11.5938 17.6922 11.7766 17.875 12 17.875C12.2234 17.875 12.4062 17.6922 12.4062 17.4688V1.38633L18.6168 7.60195C18.7742 7.75937 19.0332 7.75937 19.1906 7.60195C19.348 7.44453 19.348 7.18555 19.1906 7.02812L12.2844 0.121874L12.2895 0.116796ZM1.4375 16.6562C1.4375 16.4328 1.25469 16.25 1.03125 16.25C0.807812 16.25 0.625 16.4328 0.625 16.6562V21.5312C0.625 23.9992 2.62578 26 5.09375 26H18.9062C21.3742 26 23.375 23.9992 23.375 21.5312V16.6562C23.375 16.4328 23.1922 16.25 22.9688 16.25C22.7453 16.25 22.5625 16.4328 22.5625 16.6562V21.5312C22.5625 23.5523 20.9273 25.1875 18.9062 25.1875H5.09375C3.07266 25.1875 1.4375 23.5523 1.4375 21.5312V16.6562Z" /></svg>
